<svg width="198" height="60" viewBox="0 0 198 60" fill="none" xmlns="http://www.w3.org/2000/svg">
<path d="M39.539 29.5391H36.5V28.3125H39.539C40.1276 28.3125 40.6041 28.2188 40.9687 28.0312C41.3333 27.8438 41.5989 27.5833 41.7656 27.25C41.9375 26.9167 42.0234 26.5365 42.0234 26.1094C42.0234 25.7188 41.9375 25.3516 41.7656 25.0078C41.5989 24.6641 41.3333 24.388 40.9687 24.1797C40.6041 23.9661 40.1276 23.8594 39.539 23.8594H36.8515V34H35.3437V22.625H39.539C40.3984 22.625 41.125 22.7734 41.7187 23.0703C42.3125 23.3672 42.763 23.7786 43.0703 24.3047C43.3776 24.8255 43.5312 25.4219 43.5312 26.0938C43.5312 26.8229 43.3776 27.4453 43.0703 27.9609C42.763 28.4766 42.3125 28.8698 41.7187 29.1406C41.125 29.4062 40.3984 29.5391 39.539 29.5391Z" fill="white"/>
<path d="M46.789 22V34H45.3359V22H46.789Z" fill="white"/>
<path d="M54.2812 32.0469V25.5469H55.7344V34H54.3515L54.2812 32.0469ZM54.5547 30.2656L55.1562 30.25C55.1562 30.8125 55.0963 31.3333 54.9765 31.8125C54.862 32.2865 54.6745 32.6979 54.414 33.0469C54.1536 33.3958 53.8125 33.6693 53.3906 33.8672C52.9687 34.0599 52.4557 34.1562 51.8515 34.1562C51.4401 34.1562 51.0625 34.0964 50.7187 33.9766C50.3802 33.8568 50.0885 33.6719 49.8437 33.4219C49.5989 33.1719 49.4088 32.8464 49.2734 32.4453C49.1432 32.0443 49.0781 31.5625 49.0781 31V25.5469H50.5234V31.0156C50.5234 31.3958 50.5651 31.7109 50.6484 31.9609C50.737 32.2057 50.8541 32.401 51 32.5469C51.151 32.6875 51.3177 32.7865 51.5 32.8438C51.6875 32.901 51.8802 32.9297 52.0781 32.9297C52.6927 32.9297 53.1797 32.8125 53.539 32.5781C53.8984 32.3385 54.1562 32.0182 54.3125 31.6172C54.4739 31.2109 54.5547 30.7604 54.5547 30.2656Z" fill="white"/>
<path d="M62.8594 31.7578C62.8594 31.5495 62.8125 31.3568 62.7187 31.1797C62.6302 30.9974 62.4453 30.8333 62.164 30.6875C61.888 30.5365 61.4713 30.4062 60.914 30.2969C60.4453 30.1979 60.0208 30.0807 59.6406 29.9453C59.2656 29.8099 58.9453 29.6458 58.6797 29.4531C58.4193 29.2604 58.2187 29.0339 58.0781 28.7734C57.9375 28.513 57.8672 28.2083 57.8672 27.8594C57.8672 27.526 57.9401 27.2109 58.0859 26.9141C58.237 26.6172 58.4479 26.3542 58.7187 26.125C58.9948 25.8958 59.3255 25.7161 59.7109 25.5859C60.0963 25.4557 60.526 25.3906 61 25.3906C61.6771 25.3906 62.2552 25.5104 62.7344 25.75C63.2135 25.9896 63.5807 26.3099 63.8359 26.7109C64.0911 27.1068 64.2187 27.5469 64.2187 28.0312H62.7734C62.7734 27.7969 62.7031 27.5703 62.5625 27.3516C62.4271 27.1276 62.2265 26.9427 61.9609 26.7969C61.7005 26.651 61.3802 26.5781 61 26.5781C60.5989 26.5781 60.2734 26.6406 60.0234 26.7656C59.7786 26.8854 59.5989 27.0391 59.4844 27.2266C59.375 27.4141 59.3203 27.612 59.3203 27.8203C59.3203 27.9766 59.3463 28.1172 59.3984 28.2422C59.4557 28.362 59.5547 28.474 59.6953 28.5781C59.8359 28.6771 60.0338 28.7708 60.289 28.8594C60.5443 28.9479 60.8698 29.0365 61.2656 29.125C61.9583 29.2812 62.5286 29.4688 62.9765 29.6875C63.4245 29.9062 63.7578 30.1745 63.9765 30.4922C64.1953 30.8099 64.3047 31.1953 64.3047 31.6484C64.3047 32.0182 64.2265 32.3568 64.0703 32.6641C63.9193 32.9714 63.6979 33.237 63.4062 33.4609C63.1198 33.6797 62.776 33.8516 62.375 33.9766C61.9791 34.0964 61.5338 34.1562 61.039 34.1562C60.2943 34.1562 59.664 34.0234 59.1484 33.7578C58.6328 33.4922 58.2422 33.1484 57.9765 32.7266C57.7109 32.3047 57.5781 31.8594 57.5781 31.3906H59.0312C59.0521 31.7865 59.1666 32.1016 59.375 32.3359C59.5833 32.5651 59.8385 32.7292 60.1406 32.8281C60.4427 32.9219 60.7422 32.9688 61.039 32.9688C61.4349 32.9688 61.7656 32.9167 62.0312 32.8125C62.3021 32.7083 62.5078 32.5651 62.6484 32.3828C62.789 32.2005 62.8594 31.9922 62.8594 31.7578Z" fill="white"/>
<path d="M75.5 32.3594V22H76.9531V34H75.625L75.5 32.3594ZM69.8125 29.8672V29.7031C69.8125 29.0573 69.8906 28.4714 70.0469 27.9453C70.2083 27.4141 70.4349 26.9583 70.7265 26.5781C71.0234 26.1979 71.375 25.9062 71.7812 25.7031C72.1927 25.4948 72.651 25.3906 73.1562 25.3906C73.6875 25.3906 74.151 25.4844 74.5469 25.6719C74.9479 25.8542 75.2864 26.1224 75.5625 26.4766C75.8437 26.8255 76.0651 27.2474 76.2265 27.7422C76.388 28.237 76.5 28.7969 76.5625 29.4219V30.1406C76.5052 30.7604 76.3932 31.3177 76.2265 31.8125C76.0651 32.3073 75.8437 32.7292 75.5625 33.0781C75.2864 33.4271 74.9479 33.6953 74.5469 33.8828C74.1458 34.0651 73.6771 34.1562 73.1406 34.1562C72.6458 34.1562 72.1927 34.0495 71.7812 33.8359C71.375 33.6224 71.0234 33.3229 70.7265 32.9375C70.4349 32.5521 70.2083 32.099 70.0469 31.5781C69.8906 31.0521 69.8125 30.4818 69.8125 29.8672ZM71.2656 29.7031V29.8672C71.2656 30.2891 71.3073 30.6849 71.3906 31.0547C71.4792 31.4245 71.6146 31.75 71.7969 32.0312C71.9792 32.3125 72.2109 32.5339 72.4922 32.6953C72.7734 32.8516 73.1094 32.9297 73.5 32.9297C73.9792 32.9297 74.3724 32.8281 74.6797 32.625C74.9922 32.4219 75.2422 32.1536 75.4297 31.8203C75.6172 31.487 75.763 31.125 75.8672 30.7344V28.8516C75.8047 28.5651 75.7135 28.2891 75.5937 28.0234C75.4792 27.7526 75.3281 27.513 75.1406 27.3047C74.9583 27.0911 74.7318 26.9219 74.4609 26.7969C74.1953 26.6719 73.8802 26.6094 73.5156 26.6094C73.1198 26.6094 72.7786 26.6927 72.4922 26.8594C72.2109 27.0208 71.9792 27.2448 71.7969 27.5312C71.6146 27.8125 71.4792 28.1406 71.3906 28.5156C71.3073 28.8854 71.2656 29.2812 71.2656 29.7031Z" fill="white"/>
<path d="M80.664 22V23C80.664 23.3125 80.6094 23.6432 80.5 23.9922C80.3958 24.3359 80.2422 24.6693 80.039 24.9922C79.8359 25.3099 79.5911 25.5885 79.3047 25.8281L78.4765 25.2578C78.7213 24.9141 78.9062 24.5625 79.0312 24.2031C79.1614 23.8385 79.2265 23.4453 79.2265 23.0234V22H80.664Z" fill="white"/>
<path d="M83.9765 25.5469V34H82.5234V25.5469H83.9765ZM82.414 23.3047C82.414 23.0703 82.4844 22.8724 82.625 22.7109C82.7708 22.5495 82.9844 22.4688 83.2656 22.4688C83.5417 22.4688 83.7526 22.5495 83.8984 22.7109C84.0495 22.8724 84.125 23.0703 84.125 23.3047C84.125 23.5286 84.0495 23.7214 83.8984 23.8828C83.7526 24.0391 83.5417 24.1172 83.2656 24.1172C82.9844 24.1172 82.7708 24.0391 82.625 23.8828C82.4844 23.7214 82.414 23.5286 82.414 23.3047Z" fill="white"/>
<path d="M87.7422 27.3516V34H86.2969V25.5469H87.664L87.7422 27.3516ZM87.3984 29.4531L86.7969 29.4297C86.8021 28.8516 86.888 28.3177 87.0547 27.8281C87.2213 27.3333 87.4557 26.9036 87.7578 26.5391C88.0599 26.1745 88.4193 25.8932 88.8359 25.6953C89.2578 25.4922 89.7239 25.3906 90.2344 25.3906C90.651 25.3906 91.026 25.4479 91.3594 25.5625C91.6927 25.6719 91.9765 25.849 92.2109 26.0938C92.4505 26.3385 92.6328 26.6562 92.7578 27.0469C92.8828 27.4323 92.9453 27.9036 92.9453 28.4609V34H91.4922V28.4453C91.4922 28.0026 91.4271 27.6484 91.2969 27.3828C91.1667 27.112 90.9765 26.9167 90.7265 26.7969C90.4765 26.6719 90.1693 26.6094 89.8047 26.6094C89.4453 26.6094 89.1172 26.6849 88.8203 26.8359C88.5286 26.987 88.276 27.1953 88.0625 27.4609C87.8542 27.7266 87.6901 28.0312 87.5703 28.375C87.4557 28.7135 87.3984 29.0729 87.3984 29.4531Z" fill="white"/>
<path d="M97.2969 34H95.8515V24.6562C95.8515 24.0469 95.9609 23.5339 96.1797 23.1172C96.4036 22.6953 96.7239 22.3776 97.1406 22.1641C97.5573 21.9453 98.0521 21.8359 98.625 21.8359C98.7917 21.8359 98.9583 21.8464 99.125 21.8672C99.2969 21.888 99.4635 21.9193 99.625 21.9609L99.5469 23.1406C99.4375 23.1146 99.3125 23.0964 99.1719 23.0859C99.0364 23.0755 98.901 23.0703 98.7656 23.0703C98.4583 23.0703 98.1927 23.1328 97.9687 23.2578C97.75 23.3776 97.5833 23.5547 97.4687 23.7891C97.3542 24.0234 97.2969 24.3125 97.2969 24.6562V34ZM99.0937 25.5469V26.6562H94.5156V25.5469H99.0937Z" fill="white"/>
<path d="M100.32 29.8672V29.6875C100.32 29.0781 100.409 28.513 100.586 27.9922C100.763 27.4661 101.018 27.0104 101.352 26.625C101.685 26.2344 102.089 25.9323 102.562 25.7188C103.036 25.5 103.568 25.3906 104.156 25.3906C104.75 25.3906 105.284 25.5 105.758 25.7188C106.237 25.9323 106.643 26.2344 106.977 26.625C107.315 27.0104 107.573 27.4661 107.75 27.9922C107.927 28.513 108.016 29.0781 108.016 29.6875V29.8672C108.016 30.4766 107.927 31.0417 107.75 31.5625C107.573 32.0833 107.315 32.5391 106.977 32.9297C106.643 33.3151 106.24 33.6172 105.766 33.8359C105.297 34.0495 104.766 34.1562 104.172 34.1562C103.578 34.1562 103.044 34.0495 102.57 33.8359C102.096 33.6172 101.69 33.3151 101.352 32.9297C101.018 32.5391 100.763 32.0833 100.586 31.5625C100.409 31.0417 100.32 30.4766 100.32 29.8672ZM101.766 29.6875V29.8672C101.766 30.2891 101.815 30.6875 101.914 31.0625C102.013 31.4323 102.161 31.7604 102.359 32.0469C102.562 32.3333 102.815 32.5599 103.117 32.7266C103.419 32.888 103.771 32.9688 104.172 32.9688C104.568 32.9688 104.914 32.888 105.211 32.7266C105.513 32.5599 105.763 32.3333 105.961 32.0469C106.159 31.7604 106.307 31.4323 106.406 31.0625C106.51 30.6875 106.562 30.2891 106.562 29.8672V29.6875C106.562 29.2708 106.51 28.8776 106.406 28.5078C106.307 28.1328 106.156 27.8021 105.953 27.5156C105.755 27.224 105.505 26.9948 105.203 26.8281C104.906 26.6615 104.557 26.5781 104.156 26.5781C103.76 26.5781 103.411 26.6615 103.109 26.8281C102.812 26.9948 102.562 27.224 102.359 27.5156C102.161 27.8021 102.013 28.1328 101.914 28.5078C101.815 28.8776 101.766 29.2708 101.766 29.6875Z" fill="white"/>
<path d="M111.273 26.875V34H109.828V25.5469H111.234L111.273 26.875ZM113.914 25.5L113.906 26.8438C113.786 26.8177 113.672 26.8021 113.562 26.7969C113.458 26.7865 113.339 26.7812 113.203 26.7812C112.87 26.7812 112.576 26.8333 112.32 26.9375C112.065 27.0417 111.849 27.1875 111.672 27.375C111.495 27.5625 111.354 27.7865 111.25 28.0469C111.151 28.3021 111.086 28.5833 111.055 28.8906L110.648 29.125C110.648 28.6146 110.698 28.1354 110.797 27.6875C110.901 27.2396 111.06 26.8438 111.273 26.5C111.487 26.151 111.758 25.8802 112.086 25.6875C112.419 25.4896 112.815 25.3906 113.273 25.3906C113.378 25.3906 113.497 25.4036 113.633 25.4297C113.768 25.4505 113.862 25.474 113.914 25.5Z" fill="white"/>
<path d="M116.687 27.2266V34H115.234V25.5469H116.609L116.687 27.2266ZM116.391 29.4531L115.719 29.4297C115.724 28.8516 115.799 28.3177 115.945 27.8281C116.091 27.3333 116.307 26.9036 116.594 26.5391C116.88 26.1745 117.237 25.8932 117.664 25.6953C118.091 25.4922 118.586 25.3906 119.148 25.3906C119.544 25.3906 119.909 25.4479 120.242 25.5625C120.576 25.6719 120.865 25.8464 121.109 26.0859C121.354 26.3255 121.544 26.6328 121.68 27.0078C121.815 27.3828 121.883 27.8359 121.883 28.3672V34H120.437V28.4375C120.437 27.9948 120.362 27.6406 120.211 27.375C120.065 27.1094 119.857 26.9167 119.586 26.7969C119.315 26.6719 118.997 26.6094 118.633 26.6094C118.206 26.6094 117.849 26.6849 117.562 26.8359C117.276 26.987 117.047 27.1953 116.875 27.4609C116.703 27.7266 116.578 28.0312 116.5 28.375C116.427 28.7135 116.391 29.0729 116.391 29.4531ZM121.867 28.6562L120.898 28.9531C120.904 28.4896 120.979 28.0443 121.125 27.6172C121.276 27.1901 121.492 26.8099 121.773 26.4766C122.06 26.1432 122.411 25.8802 122.828 25.6875C123.245 25.4896 123.721 25.3906 124.258 25.3906C124.711 25.3906 125.112 25.4505 125.461 25.5703C125.815 25.6901 126.112 25.875 126.352 26.125C126.596 26.3698 126.781 26.6849 126.906 27.0703C127.031 27.4557 127.094 27.9141 127.094 28.4453V34H125.641V28.4297C125.641 27.9557 125.565 27.5885 125.414 27.3281C125.268 27.0625 125.06 26.8776 124.789 26.7734C124.523 26.6641 124.206 26.6094 123.836 26.6094C123.518 26.6094 123.237 26.6641 122.992 26.7734C122.747 26.8828 122.542 27.0339 122.375 27.2266C122.208 27.4141 122.081 27.6302 121.992 27.875C121.909 28.1198 121.867 28.3802 121.867 28.6562Z" fill="white"/>
<path d="M134.266 32.5547V28.2031C134.266 27.8698 134.198 27.5807 134.062 27.3359C133.932 27.0859 133.734 26.8932 133.469 26.7578C133.203 26.6224 132.875 26.5547 132.484 26.5547C132.12 26.5547 131.799 26.6172 131.523 26.7422C131.253 26.8672 131.039 27.0312 130.883 27.2344C130.732 27.4375 130.656 27.6562 130.656 27.8906H129.211C129.211 27.5885 129.289 27.2891 129.445 26.9922C129.602 26.6953 129.826 26.4271 130.117 26.1875C130.414 25.9427 130.768 25.75 131.18 25.6094C131.596 25.4635 132.06 25.3906 132.57 25.3906C133.185 25.3906 133.727 25.4948 134.195 25.7031C134.669 25.9115 135.039 26.2266 135.305 26.6484C135.576 27.0651 135.711 27.5885 135.711 28.2188V32.1562C135.711 32.4375 135.734 32.737 135.781 33.0547C135.833 33.3724 135.909 33.6458 136.008 33.875V34H134.5C134.427 33.8333 134.37 33.612 134.328 33.3359C134.286 33.0547 134.266 32.7943 134.266 32.5547ZM134.516 28.875L134.531 29.8906H133.07C132.659 29.8906 132.292 29.9245 131.969 29.9922C131.646 30.0547 131.375 30.151 131.156 30.2812C130.937 30.4115 130.771 30.5755 130.656 30.7734C130.542 30.9661 130.484 31.1927 130.484 31.4531C130.484 31.7188 130.544 31.9609 130.664 32.1797C130.784 32.3984 130.964 32.5729 131.203 32.7031C131.448 32.8281 131.747 32.8906 132.102 32.8906C132.544 32.8906 132.935 32.7969 133.273 32.6094C133.612 32.4219 133.88 32.1927 134.078 31.9219C134.281 31.651 134.391 31.388 134.406 31.1328L135.023 31.8281C134.987 32.0469 134.888 32.2891 134.727 32.5547C134.565 32.8203 134.349 33.0755 134.078 33.3203C133.812 33.5599 133.495 33.7604 133.125 33.9219C132.76 34.0781 132.349 34.1562 131.891 34.1562C131.318 34.1562 130.815 34.0443 130.383 33.8203C129.956 33.5964 129.622 33.2969 129.383 32.9219C129.148 32.5417 129.031 32.1172 129.031 31.6484C129.031 31.1953 129.12 30.7969 129.297 30.4531C129.474 30.1042 129.729 29.8151 130.062 29.5859C130.396 29.3516 130.797 29.1745 131.266 29.0547C131.734 28.9349 132.258 28.875 132.836 28.875H134.516Z" fill="white"/>
<path d="M141.523 25.5469V26.6562H136.953V25.5469H141.523ZM138.5 23.4922H139.945V31.9062C139.945 32.1927 139.99 32.4089 140.078 32.5547C140.167 32.7005 140.281 32.7969 140.422 32.8438C140.562 32.8906 140.714 32.9141 140.875 32.9141C140.995 32.9141 141.12 32.9036 141.25 32.8828C141.385 32.8568 141.487 32.8359 141.555 32.8203L141.562 34C141.448 34.0365 141.297 34.0703 141.109 34.1016C140.927 34.138 140.706 34.1562 140.445 34.1562C140.091 34.1562 139.766 34.0859 139.469 33.9453C139.172 33.8047 138.935 33.5703 138.758 33.2422C138.586 32.9089 138.5 32.4609 138.5 31.8984V23.4922Z" fill="white"/>
<path d="M144.789 25.5469V34H143.336V25.5469H144.789ZM143.227 23.3047C143.227 23.0703 143.297 22.8724 143.437 22.7109C143.583 22.5495 143.797 22.4688 144.078 22.4688C144.354 22.4688 144.565 22.5495 144.711 22.7109C144.862 22.8724 144.937 23.0703 144.937 23.3047C144.937 23.5286 144.862 23.7214 144.711 23.8828C144.565 24.0391 144.354 24.1172 144.078 24.1172C143.797 24.1172 143.583 24.0391 143.437 23.8828C143.297 23.7214 143.227 23.5286 143.227 23.3047Z" fill="white"/>
<path d="M146.727 29.8672V29.6875C146.727 29.0781 146.815 28.513 146.992 27.9922C147.169 27.4661 147.424 27.0104 147.758 26.625C148.091 26.2344 148.495 25.9323 148.969 25.7188C149.443 25.5 149.974 25.3906 150.562 25.3906C151.156 25.3906 151.69 25.5 152.164 25.7188C152.643 25.9323 153.049 26.2344 153.383 26.625C153.721 27.0104 153.979 27.4661 154.156 27.9922C154.333 28.513 154.422 29.0781 154.422 29.6875V29.8672C154.422 30.4766 154.333 31.0417 154.156 31.5625C153.979 32.0833 153.721 32.5391 153.383 32.9297C153.049 33.3151 152.646 33.6172 152.172 33.8359C151.703 34.0495 151.172 34.1562 150.578 34.1562C149.984 34.1562 149.451 34.0495 148.977 33.8359C148.503 33.6172 148.096 33.3151 147.758 32.9297C147.424 32.5391 147.169 32.0833 146.992 31.5625C146.815 31.0417 146.727 30.4766 146.727 29.8672ZM148.172 29.6875V29.8672C148.172 30.2891 148.221 30.6875 148.32 31.0625C148.419 31.4323 148.568 31.7604 148.766 32.0469C148.969 32.3333 149.221 32.5599 149.523 32.7266C149.826 32.888 150.177 32.9688 150.578 32.9688C150.974 32.9688 151.32 32.888 151.617 32.7266C151.919 32.5599 152.169 32.3333 152.367 32.0469C152.565 31.7604 152.714 31.4323 152.812 31.0625C152.917 30.6875 152.969 30.2891 152.969 29.8672V29.6875C152.969 29.2708 152.917 28.8776 152.812 28.5078C152.714 28.1328 152.562 27.8021 152.359 27.5156C152.161 27.224 151.911 26.9948 151.609 26.8281C151.312 26.6615 150.964 26.5781 150.562 26.5781C150.167 26.5781 149.818 26.6615 149.516 26.8281C149.219 26.9948 148.969 27.224 148.766 27.5156C148.568 27.8021 148.419 28.1328 148.32 28.5078C148.221 28.8776 148.172 29.2708 148.172 29.6875Z" fill="white"/>
<path d="M157.68 27.3516V34H156.234V25.5469H157.602L157.68 27.3516ZM157.336 29.4531L156.734 29.4297C156.74 28.8516 156.826 28.3177 156.992 27.8281C157.159 27.3333 157.393 26.9036 157.695 26.5391C157.997 26.1745 158.357 25.8932 158.773 25.6953C159.195 25.4922 159.661 25.3906 160.172 25.3906C160.589 25.3906 160.964 25.4479 161.297 25.5625C161.63 25.6719 161.914 25.849 162.148 26.0938C162.388 26.3385 162.57 26.6562 162.695 27.0469C162.82 27.4323 162.883 27.9036 162.883 28.4609V34H161.43V28.4453C161.43 28.0026 161.365 27.6484 161.234 27.3828C161.104 27.112 160.914 26.9167 160.664 26.7969C160.414 26.6719 160.107 26.6094 159.742 26.6094C159.383 26.6094 159.055 26.6849 158.758 26.8359C158.466 26.987 158.214 27.1953 158 27.4609C157.792 27.7266 157.628 28.0312 157.508 28.375C157.393 28.7135 157.336 29.0729 157.336 29.4531Z" fill="white"/>
</svg>
